<svg width="16" height="16" viewBox="0 0 40 40" fill="none" xmlns="http://www.w3.org/2000/svg">
<path d="M30.6452 40C35.8117 40 40 35.8122 40 30.6462C40 25.4803 35.8117 21.2925 30.6452 21.2925C25.4787 21.2925 21.2904 25.4803 21.2904 30.6462C21.2904 35.8122 25.4787 40 30.6452 40Z" fill="#2F80ED"/>
<path d="M0 0L0 30.7622C0.126015 35.9456 4.27463 39.9999 9.35481 39.9999C14.435 39.9999 18.5836 35.9456 18.7068 30.878L18.7096 18.7114H30.6217L30.8751 18.7048C35.9441 18.5826 40 14.4341 40 9.35376C40 4.27346 35.9441 0.124949 30.8751 0.00276778L0 0Z" fill="#2F80ED"/>
</svg>
